<svg width="46" height="46" viewBox="0 0 46 46" fill="none" xmlns="http://www.w3.org/2000/svg">
<path d="M31.9509 15.7435C31.7537 15.2328 31.4518 14.769 31.0644 14.3821C30.6771 13.9952 30.2131 13.6938 29.7022 13.4971C28.9987 13.2366 28.2557 13.0988 27.5055 13.09C26.2581 13.0332 25.8841 13.019 22.724 13.019C19.564 13.019 19.19 13.0332 17.9425 13.09C17.1916 13.0986 16.4477 13.2363 15.7435 13.4971C15.2328 13.6943 14.769 13.9963 14.3821 14.3836C13.9953 14.7709 13.6938 15.2349 13.4971 15.7458C13.2366 16.4493 13.0988 17.1924 13.09 17.9425C13.0332 19.1899 13.019 19.5639 13.019 22.724C13.019 25.8841 13.0332 26.2581 13.09 27.5055C13.0986 28.2564 13.2363 29.0003 13.4971 29.7045C13.6943 30.2152 13.9963 30.679 14.3836 31.0659C14.7709 31.4528 15.2349 31.7543 15.7459 31.9509C16.4493 32.2115 17.1924 32.3492 17.9425 32.358C19.19 32.4148 19.564 32.4267 22.724 32.4267C25.8841 32.4267 26.2581 32.4148 27.5055 32.3557C28.2563 32.3478 29.0002 32.2109 29.7045 31.9509C30.2152 31.7537 30.679 31.4517 31.0659 31.0644C31.4528 30.6771 31.7543 30.2131 31.9509 29.7022C32.2115 28.9987 32.3492 28.2556 32.358 27.5055C32.4149 26.2581 32.4267 25.8841 32.4267 22.724C32.4267 19.5639 32.4149 19.1899 32.3557 17.9425C32.3478 17.1917 32.2109 16.4478 31.9509 15.7435ZM22.724 28.8027C21.5218 28.8027 20.3465 28.4462 19.3469 27.7782C18.3473 27.1103 17.5681 26.1609 17.1081 25.0502C16.648 23.9395 16.5276 22.7173 16.7621 21.5381C16.9967 20.359 17.5756 19.2759 18.4257 18.4257C19.2759 17.5756 20.359 16.9967 21.5381 16.7621C22.7173 16.5276 23.9395 16.648 25.0502 17.108C26.161 17.5681 27.1103 18.3472 27.7782 19.3469C28.4462 20.3465 28.8027 21.5218 28.8027 22.724C28.8027 24.3362 28.1623 25.8823 27.0223 27.0223C25.8823 28.1622 24.3362 28.8027 22.724 28.8027ZM29.0418 17.8265C28.7609 17.8265 28.4863 17.7432 28.2527 17.5872C28.0192 17.4311 27.8371 17.2093 27.7296 16.9498C27.6221 16.6902 27.594 16.4047 27.6488 16.1292C27.7036 15.8537 27.8389 15.6006 28.0375 15.402C28.2361 15.2034 28.4892 15.0681 28.7647 15.0133C29.0402 14.9585 29.3258 14.9866 29.5853 15.0941C29.8448 15.2016 30.0666 15.3836 30.2227 15.6172C30.3787 15.8508 30.462 16.1254 30.462 16.4063C30.462 16.7829 30.3124 17.1442 30.046 17.4105C29.7797 17.6769 29.4184 17.8265 29.0418 17.8265ZM26.6699 22.724C26.6699 23.5044 26.4385 24.2673 26.0049 24.9162C25.5714 25.5651 24.9551 26.0709 24.2341 26.3696C23.513 26.6682 22.7196 26.7464 21.9542 26.5941C21.1888 26.4419 20.4857 26.066 19.9338 25.5142C19.382 24.9623 19.0062 24.2593 18.8539 23.4938C18.7017 22.7284 18.7798 21.935 19.0785 21.214C19.3771 20.4929 19.8829 19.8767 20.5318 19.4431C21.1807 19.0095 21.9436 18.7781 22.724 18.7781C23.7705 18.7781 24.7742 19.1938 25.5142 19.9338C26.2542 20.6738 26.6699 21.6775 26.6699 22.724ZM22.724 0C18.2296 0 13.8362 1.33274 10.0992 3.82969C6.36229 6.32663 3.4497 9.87564 1.72977 14.0279C0.00984591 18.1802 -0.440165 22.7492 0.436646 27.1572C1.31346 31.5653 3.47771 35.6143 6.65572 38.7923C9.83373 41.9703 13.8828 44.1346 18.2908 45.0114C22.6988 45.8882 27.2678 45.4382 31.4201 43.7182C35.5724 41.9983 39.1214 39.0857 41.6183 35.3488C44.1153 31.6118 45.448 27.2184 45.448 22.724C45.448 16.6972 43.0539 10.9173 38.7923 6.65571C34.5307 2.39413 28.7508 0 22.724 0ZM34.4884 27.6026C34.4684 28.5847 34.2819 29.5564 33.9369 30.4762C33.6329 31.2623 33.168 31.9761 32.5721 32.5721C31.9761 33.168 31.2623 33.6329 30.4762 33.9369C29.5572 34.2816 28.5863 34.4681 27.6049 34.4884C26.3409 34.5452 25.9385 34.5594 22.724 34.5594C19.5095 34.5594 19.1071 34.5452 17.8431 34.4884C16.8617 34.4681 15.8909 34.2816 14.9718 33.9369C14.1858 33.6329 13.4719 33.168 12.8759 32.5721C12.28 31.9761 11.8151 31.2623 11.5111 30.4762C11.1664 29.5571 10.9799 28.5863 10.9596 27.6049C10.9028 26.3409 10.8886 25.9385 10.8886 22.724C10.8886 19.5095 10.9028 19.1071 10.9596 17.8431C10.9792 16.8618 11.1648 15.891 11.5088 14.9718C11.8127 14.1851 12.2779 13.4706 12.8742 12.8742C13.4706 12.2778 14.1851 11.8127 14.9718 11.5088C15.891 11.1648 16.8618 10.9791 17.8431 10.9596C19.1071 10.9028 19.5095 10.8886 22.724 10.8886C25.9385 10.8886 26.3409 10.9028 27.6049 10.9596C28.5862 10.9791 29.557 11.1648 30.4762 11.5088C31.2625 11.813 31.9765 12.2782 32.5725 12.8746C33.1684 13.471 33.6332 14.1853 33.9369 14.9718C34.2816 15.8909 34.4681 16.8617 34.4884 17.8431C34.5452 19.1071 34.5594 19.5095 34.5594 22.724C34.5594 25.9385 34.5452 26.3385 34.4884 27.6026Z" fill="white"/>
</svg>
