<svg width="44" height="46" viewBox="0 0 44 46" fill="none" xmlns="http://www.w3.org/2000/svg">
<path d="M21.5428 0C9.64491 0 0 10.1848 0 22.7487C0 35.3127 9.64491 45.4975 21.5428 45.4975C33.4408 45.4975 43.0857 35.3127 43.0857 22.7487C43.0857 10.1848 33.4408 0 21.5428 0ZM16.2693 32.1776H11.9069V17.353H16.2693V32.1776ZM14.0612 15.5331C12.6833 15.5331 11.7925 14.5023 11.7925 13.2274C11.7925 11.9265 12.7103 10.9265 14.1173 10.9265C15.5243 10.9265 16.386 11.9265 16.4129 13.2274C16.4129 14.5023 15.5243 15.5331 14.0612 15.5331ZM32.2021 32.1776H27.8396V23.962C27.8396 22.0497 27.2068 20.7511 25.6292 20.7511C24.4242 20.7511 23.7083 21.6303 23.3919 22.4762C23.2752 22.7772 23.2461 23.2037 23.2461 23.6279V32.1752H18.8814V22.0805C18.8814 20.2298 18.8253 18.6824 18.767 17.3506H22.5571L22.7569 19.4099H22.8444C23.4189 18.4431 24.8259 17.0165 27.1799 17.0165C30.05 17.0165 32.2021 19.0473 32.2021 23.4122V32.1776Z" fill="white"/>
</svg>
