<?xml version="1.0" encoding="UTF-8"?>
<svg id="Camada_2" data-name="Camada 2" xmlns="http://www.w3.org/2000/svg" viewBox="0 0 185.56 59.75">
  <defs>
    <style>
      .cls-1 {
        fill: #2b60bf;
      }
    </style>
  </defs>
  <g id="Camada_1-2" data-name="Camada 1">
    <g>
      <g>
        <polygon class="cls-1" points="60.66 14.17 72.83 14.17 72.83 11.75 60.66 11.75 60.66 4.37 74.17 4.37 74.17 1.96 58.08 1.96 58.08 24.38 60.66 24.38 60.66 14.17"/>
        <path class="cls-1" d="M85.49,24.77c2.35,0,5.32-1.01,6.79-2.61l-1.5-1.6c-1.04,1.14-3.33,2.02-5.32,2.02-3.33,0-5.65-2.42-6.01-5.71h13.81c0-5.91-2.9-9.76-8-9.76-4.54,0-8.32,3.75-8.32,8.78s4.05,8.88,8.55,8.88Zm-.13-15.47c3.36,0,5.16,2.35,5.48,5.39h-11.36c.46-3.26,2.87-5.39,5.88-5.39Z"/>
        <rect class="cls-1" x="97.27" y="1.57" width="2.45" height="22.81"/>
        <rect class="cls-1" x="104.65" y="7.51" width="2.45" height="16.87"/>
        <path class="cls-1" d="M105.89,4.44c.88,0,1.6-.75,1.6-1.63s-.72-1.6-1.6-1.6-1.63,.75-1.63,1.6,.72,1.63,1.63,1.63Z"/>
        <path class="cls-1" d="M114.7,21.22c1.27,2.22,3.43,3.56,6.14,3.56,4.44,0,7.77-3.66,7.77-8.84s-3.33-8.81-7.77-8.81c-2.71,0-4.86,1.34-6.14,3.56v-3.17h-2.45V30h2.45v-8.78Zm5.68-11.91c3.3,0,5.65,2.74,5.65,6.63s-2.35,6.66-5.65,6.66-5.68-2.77-5.68-6.66,2.35-6.63,5.68-6.63Z"/>
        <path class="cls-1" d="M147.27,22.16l-1.5-1.6c-1.04,1.14-3.33,2.02-5.32,2.02-3.33,0-5.65-2.42-6.01-5.71h13.81c0-5.91-2.9-9.76-8-9.76-4.54,0-8.32,3.75-8.32,8.78s4.05,8.88,8.55,8.88c2.35,0,5.32-1.01,6.79-2.61Zm-6.92-12.86c3.36,0,5.16,2.35,5.48,5.39h-11.36c.46-3.26,2.87-5.39,5.88-5.39Z"/>
        <path class="cls-1" d="M76.89,46.58c-1.27-.51-3.01-.92-5.21-1.22l-5.35-.75c-1.76-.24-3-.59-3.7-1.06-.71-.47-1.06-1.14-1.06-2.01,0-1.13,.6-2.02,1.8-2.68,1.2-.65,2.8-.98,4.8-.98,1.41,0,2.64,.18,3.69,.54,1.04,.36,1.88,.85,2.5,1.49,.62,.63,.98,1.38,1.09,2.25h4.37c-.09-1.57-.64-2.93-1.65-4.1-1.01-1.16-2.37-2.07-4.06-2.73s-3.64-.98-5.84-.98-4.16,.3-5.81,.9c-1.65,.6-2.93,1.45-3.83,2.55-.9,1.1-1.35,2.4-1.35,3.9,0,1.98,.67,3.51,2.01,4.59,1.34,1.08,3.49,1.81,6.45,2.2l5.29,.69c1.94,.24,3.27,.6,4.01,1.08,.74,.48,1.11,1.2,1.11,2.15,0,1.18-.64,2.11-1.93,2.79-1.28,.69-3.02,1.03-5.22,1.03-1.48,0-2.79-.2-3.92-.6-1.13-.4-2.04-.97-2.73-1.71-.69-.74-1.09-1.6-1.22-2.58h-4.37c.09,1.68,.65,3.14,1.7,4.41,1.04,1.26,2.46,2.25,4.26,2.95,1.8,.71,3.87,1.06,6.22,1.06s4.32-.32,6.05-.96c1.73-.64,3.07-1.55,4.03-2.73,.96-1.17,1.44-2.55,1.44-4.11,0-1.35-.27-2.45-.82-3.31-.54-.86-1.45-1.54-2.73-2.06Z"/>
        <path class="cls-1" d="M94.3,56.26c-1.5,0-2.58-.31-3.25-.93-.66-.62-1-1.7-1-3.25v-8h8.58v-3.26h-8.58v-4.83h-2.48l-1.76,5.16-3.95,1.01v1.93h3.95v8.65c0,1.37,.26,2.58,.77,3.64,.51,1.06,1.32,1.88,2.43,2.48,1.11,.6,2.57,.9,4.37,.9,1.09,0,2.15-.13,3.18-.39,1.03-.26,1.83-.53,2.4-.82v-3.49c-.67,.39-1.38,.69-2.12,.9-.74,.21-1.59,.31-2.55,.31Z"/>
        <path class="cls-1" d="M117.53,41.59c-1.69-.82-3.65-1.22-5.89-1.22s-4.21,.41-5.89,1.22c-1.69,.82-3,1.95-3.95,3.39-.95,1.45-1.42,3.14-1.42,5.08s.47,3.6,1.42,5.06c.95,1.46,2.26,2.59,3.95,3.41,1.69,.82,3.65,1.22,5.89,1.22s4.2-.41,5.89-1.22c1.69-.82,3-1.95,3.95-3.41,.95-1.46,1.42-3.14,1.42-5.06s-.47-3.63-1.42-5.08c-.95-1.45-2.26-2.58-3.95-3.39Zm.21,11.85c-.57,.95-1.37,1.68-2.4,2.2-1.03,.52-2.27,.78-3.7,.78s-2.64-.26-3.69-.78c-1.04-.52-1.85-1.26-2.42-2.2-.57-.95-.85-2.07-.85-3.38s.28-2.43,.85-3.38c.57-.95,1.37-1.68,2.42-2.2,1.04-.52,2.27-.78,3.69-.78s2.67,.26,3.7,.78c1.03,.52,1.83,1.26,2.4,2.2,.57,.95,.85,2.07,.85,3.38s-.28,2.43-.85,3.38Z"/>
        <path class="cls-1" d="M137.65,40.36c-1.24,0-2.33,.24-3.26,.72-.94,.48-1.72,1.14-2.37,1.99-.62,.82-1.1,1.77-1.46,2.86l-.84-5.11h-4.24l1.11,5.91v12.57h4.24v-8.36c0-1.5,.27-2.77,.8-3.8,.53-1.03,1.27-1.81,2.2-2.33,.94-.52,2-.78,3.2-.78,.5,0,1.03,.03,1.6,.1,.57,.07,1.09,.16,1.57,.29v-3.72c-.35-.11-.75-.19-1.21-.24-.46-.05-.9-.08-1.34-.08Z"/>
        <path class="cls-1" d="M148.48,44.46c.98-.51,2.12-.77,3.43-.77,1.63,0,3.02,.39,4.18,1.17,1.15,.78,1.88,1.87,2.19,3.26h4.28c-.22-1.54-.82-2.9-1.8-4.06-.98-1.16-2.23-2.07-3.75-2.73-1.52-.65-3.22-.98-5.09-.98-2.13,0-4.01,.41-5.63,1.22-1.62,.82-2.89,1.95-3.8,3.41-.91,1.46-1.37,3.14-1.37,5.06s.46,3.6,1.37,5.06c.91,1.46,2.18,2.59,3.8,3.41,1.62,.82,3.5,1.22,5.63,1.22,1.87,0,3.57-.33,5.09-.98,1.52-.65,2.77-1.56,3.75-2.73,.98-1.16,1.58-2.51,1.8-4.03h-4.28c-.28,1.33-1,2.39-2.15,3.2-1.15,.81-2.56,1.21-4.21,1.21-1.31,0-2.45-.26-3.43-.77-.98-.51-1.74-1.25-2.27-2.2-.53-.96-.8-2.09-.8-3.39s.27-2.46,.8-3.41c.53-.95,1.29-1.68,2.27-2.19Z"/>
        <path class="cls-1" d="M184.59,44.39c-.64-1.29-1.57-2.29-2.79-2.99-1.22-.7-2.7-1.04-4.44-1.04-1.57,0-2.98,.36-4.24,1.09-1.26,.73-2.3,1.77-3.1,3.12v-10.41h-4.24v25.13h4.24v-9.01c0-1.28,.24-2.4,.73-3.36,.49-.96,1.19-1.7,2.09-2.24,.9-.53,1.95-.8,3.15-.8,1.74,0,3.06,.5,3.97,1.48,.9,.99,1.35,2.45,1.35,4.39v9.53h4.24v-10.22c0-1.83-.32-3.39-.96-4.68Z"/>
      </g>
      <g>
        <path class="cls-1" d="M20.01,.21c-1.16,.24-2.25,.4-3.31,.69-.92,.25-1.84,.55-2.69,.97-3.68,1.8-5.2,5.08-4.31,9.1,.59,2.65,2.02,4.79,4.23,6.25,3.48,2.29,7.07,4.41,10.63,6.57,2.95,1.8,6.02,3.43,8.87,5.37,3.25,2.21,5.63,5.21,6.54,9.13,1.44,6.15-.47,11.3-5.01,15.5-3.48,3.22-7.75,4.82-12.4,5.46-1.04,.14-2.1,.19-3.15,.27-.25,.02-.51,0-.76,0,0-.08,0-.15,0-.23,.8-.11,1.6-.21,2.4-.33,2.17-.32,4.19-1.01,5.98-2.31,3.57-2.59,4.26-7.12,2.74-10.99-.92-2.36-2.64-4.08-4.78-5.33-3.83-2.24-7.72-4.38-11.58-6.57-3.43-1.95-6.68-4.14-9.26-7.18C.39,22.14-.93,17.11,.66,11.47c.95-3.39,3.26-5.82,6.11-7.77C10.61,1.09,14.94,.11,19.51,0c.1,0,.2,.01,.29,.03,.04,0,.07,.05,.21,.17Z"/>
        <path class="cls-1" d="M35.41,14.25c-3.8,.16-7.08-3.18-7.07-7.15,0-3.91,3.31-7.23,7.07-7.07V14.25Z"/>
        <path class="cls-1" d="M.08,59.22v-14.21c3.59-.26,6.99,3.04,7.08,6.81,.1,4.08-3.11,7.46-7.08,7.39Z"/>
      </g>
    </g>
  </g>
</svg>