<svg width="26" height="26" viewBox="0 0 26 26" fill="none" xmlns="http://www.w3.org/2000/svg">
<path d="M25.9786 12.2349C25.5367 4.69589 18.6866 -1.11434 10.7966 0.185491C5.3633 1.08237 1.00887 5.48877 0.163977 10.922C-0.329959 14.0676 0.319982 17.0442 1.7368 19.5009L0.579935 23.8033C0.319969 24.7782 1.21683 25.6621 2.1787 25.3891L6.41616 24.2193C8.33991 25.3501 10.5886 26.0001 12.9933 26.0001C20.3244 26.0001 26.4076 19.5399 25.9786 12.2349ZM19.3495 17.8371C19.2325 18.0711 19.0895 18.2921 18.9075 18.5C18.5826 18.851 18.2316 19.111 17.8417 19.2669C17.4517 19.4359 17.0228 19.5139 16.5678 19.5139C15.9049 19.5139 15.19 19.358 14.4491 19.0331C13.6952 18.7081 12.9543 18.2791 12.2134 17.7461C11.4595 17.2002 10.7576 16.5893 10.0817 15.9264C9.40578 15.2505 8.80782 14.5356 8.26189 13.7946C7.72896 13.0537 7.30004 12.3128 6.98808 11.5719C6.67613 10.831 6.52017 10.1162 6.52017 9.44028C6.52017 8.99833 6.59815 8.56938 6.75413 8.17943C6.91011 7.77649 7.1571 7.41255 7.50806 7.08759C7.924 6.67164 8.37892 6.47667 8.85985 6.47667C9.04182 6.47667 9.22377 6.51565 9.39275 6.59364C9.56172 6.67163 9.71773 6.78862 9.83473 6.95759L11.3425 9.0893C11.4595 9.25828 11.5505 9.40126 11.6025 9.54424C11.6675 9.68722 11.6935 9.81721 11.6935 9.94719C11.6935 10.1032 11.6415 10.2592 11.5505 10.4151C11.4595 10.5711 11.3425 10.727 11.1865 10.883L10.6926 11.403C10.6146 11.481 10.5886 11.5589 10.5886 11.6629C10.5886 11.7149 10.6016 11.7669 10.6146 11.8189C10.6406 11.8709 10.6536 11.9099 10.6666 11.9489C10.7836 12.1699 10.9916 12.4428 11.2775 12.7808C11.5765 13.1187 11.8885 13.4697 12.2264 13.8076C12.5774 14.1586 12.9153 14.4706 13.2663 14.7695C13.6042 15.0555 13.8902 15.2505 14.1112 15.3674C14.1502 15.3804 14.1892 15.4064 14.2282 15.4194C14.2801 15.4454 14.3321 15.4454 14.3971 15.4454C14.5141 15.4454 14.5921 15.4064 14.6701 15.3284L15.164 14.8345C15.333 14.6655 15.489 14.5485 15.632 14.4706C15.7879 14.3796 15.9309 14.3276 16.0999 14.3276C16.2299 14.3276 16.3599 14.3536 16.5029 14.4186C16.6458 14.4836 16.8018 14.5615 16.9578 14.6785L19.1155 16.2123C19.2845 16.3293 19.4015 16.4723 19.4795 16.6283C19.5445 16.7973 19.5835 16.9532 19.5835 17.1352C19.5055 17.3562 19.4535 17.6031 19.3495 17.8371Z" fill="#F1F1F1"/>
</svg>
